# xmcd CD database file
#
# Track frame offsets:
#	150
#	24123
#	32071
#	44891
#	59437
#	68089
#	80930
#	95888
#	108518
#
# Disc length: 1736 seconds
#
# Revision: 0
# Processed by: cddbd v1.5.2PL0 Copyright (c) Steve Scherf et al.
# Submitted via: CDex 1.70beta2
#
DISCID=7f06c609
DTITLE=Pepa Jahoda - Písničky a balady Pepy Jahody
DYEAR=1900
DGENRE=Country
TTITLE0=Vzpomínám na Tennesse
TTITLE1=Jak ten čas utíká
TTITLE2=Podzimní vítr
TTITLE3=Balada o jarní poště
TTITLE4=Svět vzpomínek
TTITLE5=Kamarádi
TTITLE6=Jarní písnička
TTITLE7=Balada o snu
TTITLE8=Indiánské léto
EXTD=
EXTT0=
EXTT1=
EXTT2=
EXTT3=
EXTT4=
EXTT5=
EXTT6=
EXTT7=
EXTT8=
PLAYORDER=
